<svg fill="none" height="24" viewBox="0 0 24 24" width="24" xmlns="http://www.w3.org/2000/svg"><path d="m3 12c0-4.97056 4.02944-9 9-9 4.9706 0 9 4.02944 9 9 0 4.9706-4.0294 9-9 9-4.97056 0-9-4.0294-9-9z" fill="#2a4157" fill-opacity=".24"/><g fill="#222"><circle cx="12" cy="10" r="4"/><path clip-rule="evenodd" d="m18.2209 18.2462c.0582.0964.0404.2198-.0414.297-1.6121 1.523-3.7867 2.4568-6.1795 2.4568-2.39272 0-4.56736-.9337-6.17943-2.4567-.0818-.0773-.09956-.2006-.04139-.297 1.16419-1.9283 3.51297-3.2463 6.22092-3.2463 2.7078 0 5.0566 1.3179 6.2208 3.2462z" fill-rule="evenodd"/></g></svg>